<?xml version="1.0" standalone="no"?>
<svg xmlns="http://www.w3.org/2000/svg" viewBox="0 0 117 69" width="117" height="69"><g fill="#72edca" color="#72edca" transform="translate(36.044 0) scale(0.50066) "><svg width="87.884" height="87.873" x="0.0" y="0.0" viewBox="0 0 87.884 87.873"><path fill="currentColor" d="M0,80.195l7.678,7.678L24.09,71.46l-7.676-7.677L0,80.195z M76.833,11.068C69.696,3.929,60.207,0,50.112,0  C40.017,0,30.528,3.929,23.393,11.068c-7.137,7.138-11.069,16.627-11.069,26.721c0,10.093,3.932,19.584,11.069,26.721  c2.057,2.056,4.312,3.837,6.718,5.344c-0.33,2.458-0.46,5.051-0.463,7.712c0.061,0.858,0.538,1.105,0.74,1.267  c0.429,0.271,0.816,0.392,1.272,0.541c0.669,0.212,1.431,0.406,1.989,0.586c0.089,0.027,0.173,0.056,0.248,0.083  c0.265,3.267,1.876,5.495,4.255,6.482c2.478,1.066,5.521,1.11,8.997,1.122c0.854,0,1.737-0.003,2.644-0.003  c4.148-0.009,7.81,0.027,10.747-0.943c1.465-0.491,2.776-1.282,3.717-2.511c0.845-1.095,1.355-2.484,1.539-4.145  c0.379-0.135,1.028-0.338,1.6-0.497c0.455-0.136,0.893-0.272,1.296-0.443c0.202-0.091,0.396-0.181,0.621-0.351  c0.194-0.159,0.593-0.463,0.625-1.187c-0.002-2.552-0.095-5.023-0.352-7.376c2.607-1.573,5.042-3.473,7.251-5.682  C91.566,49.775,91.566,25.8,76.833,11.068z M34.837,77.737c-0.605-0.229-1.255-0.384-1.894-0.581  c-0.3-0.086-0.584-0.173-0.802-0.249c0.016-1.985,0.116-3.888,0.314-5.691c0.976,0.517,1.974,0.988,2.99,1.417l-0.693,5.048  L34.837,77.737z M63.358,79.289c-0.101,1.575-0.498,2.624-1.076,3.378c-0.854,1.119-2.303,1.779-4.475,2.128  c-2.152,0.35-4.909,0.358-8.015,0.356c-0.915,0-1.799,0.004-2.644,0.004c-3.432,0.014-6.256-0.128-7.994-0.913  c-1.692-0.803-2.6-1.878-2.806-4.942c-0.228-1.755-0.283-4.161-0.269-6.41c4.405,1.76,9.146,2.688,14.032,2.688  c4.67,0,9.206-0.851,13.444-2.462C63.469,76.111,63.38,79.057,63.358,79.289z M50.114,65.734c-5.35,0-10.465-1.499-14.879-4.288  c0.933-1.655,2.107-3.067,3.583-4.171c0.883,0.554,1.815,1.036,2.781,1.451c0.098,0.623,0.356,1.624,1.062,2.671  c1.092,1.649,3.386,3.189,7.188,3.161h0.114c3.685,0,5.923-1.579,6.965-3.258c0.651-1.027,0.904-2.011,1.006-2.669  c1.006-0.449,1.968-0.975,2.879-1.574c1.684,1.191,2.946,2.722,3.908,4.562C60.369,64.298,55.354,65.734,50.114,65.734z   M49.615,57.879c-0.104-0.001-0.207-0.006-0.31-0.008c-0.207-0.003-0.412-0.016-0.618-0.024  c-8.856-0.524-15.955-7.518-16.645-16.329l3.475-5.175c0,0,3.769,2.729,11.749,4.512c7.979,1.784,15.494-0.085,15.494-0.085  s2.122,3.956,3.677,5.294c-1.127,3.175-3.138,5.927-5.729,7.978l-0.069-0.042l-0.668,0.486  C57.053,56.605,53.49,57.868,49.615,57.879z M54.988,59.676c-0.189,0.351-0.437,0.706-0.783,1.028  c-0.768,0.709-2.013,1.354-4.355,1.363c-3.199-0.028-4.439-1.105-5.131-2.071c-0.06-0.086-0.107-0.175-0.158-0.262  c1.304,0.334,2.656,0.539,4.045,0.608c0.169,0.008,0.342,0.011,0.512,0.015c0.149,0.004,0.297,0.016,0.447,0.016  c0.018,0,0.035-0.004,0.052-0.004c0.035,0.001,0.069,0.004,0.104,0.004C51.543,60.373,53.308,60.128,54.988,59.676z M65.589,77.484  c-0.115,0.036-0.225,0.073-0.334,0.108l-0.669-4.873c0.891-0.369,1.763-0.782,2.622-1.22c0.151,1.728,0.224,3.54,0.234,5.417  C66.983,77.083,66.246,77.283,65.589,77.484z M66.794,60.216c-0.989-1.808-2.27-3.41-3.914-4.714  c4.326-3.71,7.071-9.212,7.072-15.359c-0.001-11.174-9.058-20.229-20.232-20.23c-11.172,0.002-20.227,9.057-20.229,20.23  c0.001,6.263,2.847,11.857,7.313,15.568c-1.479,1.225-2.665,2.68-3.619,4.311c-0.988-0.756-1.937-1.577-2.832-2.472  c-10.897-10.897-10.897-28.626,0-39.521c5.277-5.279,12.296-8.184,19.76-8.184c7.464,0,14.481,2.905,19.763,8.183  c5.278,5.278,8.186,12.295,8.186,19.76c0,7.467-2.907,14.484-8.186,19.763C68.905,58.521,67.875,59.409,66.794,60.216z   M45.403,49.406c1.128,0,2.042-1.48,2.042-3.309s-0.914-3.31-2.042-3.31c-1.127,0-2.042,1.481-2.042,3.31  S44.276,49.406,45.403,49.406z M61.003,50.812c0.231-0.254,0.218-0.646-0.034-0.882c-0.254-0.233-0.646-0.22-0.881,0.032  c-0.001,0-0.225,0.246-0.686,0.64c-1.385,1.188-4.744,3.57-9.243,3.563c-3.025,0-5.571-0.894-7.36-1.794  c-0.894-0.449-1.598-0.896-2.075-1.231c-0.476-0.333-0.708-0.54-0.709-0.54c-0.26-0.228-0.654-0.2-0.879,0.06  c-0.227,0.258-0.2,0.65,0.06,0.879c0.056,0.042,4.413,3.863,10.967,3.874C56.764,55.397,60.949,50.856,61.003,50.812z   M54.416,49.406c1.128,0,2.044-1.48,2.044-3.309s-0.916-3.31-2.044-3.31c-1.127,0-2.04,1.481-2.04,3.31S53.288,49.406,54.416,49.406  z"></path></svg></g><path fill="#0019ff" fill-rule="nonzero" d="M6.41 2.59L6.41 2.59Q6.24 4.46 6.24 8.60Q6.24 12.74 6.43 14.98L6.43 14.98L7.82 15.12Q7.87 15.50 7.87 15.73Q7.87 15.96 7.80 16.39L7.80 16.39Q6.94 16.37 5.32 16.37Q3.70 16.37 2.95 16.39L2.95 16.39Q2.88 16.03 2.88 15.79Q2.88 15.55 2.93 15.12L2.93 15.12L4.25 14.98Q4.44 12.41 4.44 8.46Q4.44 4.51 4.22 2.59L4.22 2.59Q3.29 2.62 1.63 2.76L1.63 2.76L1.56 4.54Q1.18 4.61 0.84 4.61Q0.50 4.61 0.22 4.58L0.22 4.58Q0.14 2.62 0 0.94L0 0.94L0.12 0.82Q1.90 1.03 5.81 1.03Q9.72 1.03 10.70 0.82L10.70 0.82L10.82 0.94Q10.66 2.78 10.61 4.34L10.61 4.34Q10.32 4.37 10.00 4.37Q9.67 4.37 9.26 4.30L9.26 4.30L9.19 2.69Q8.18 2.64 6.41 2.59ZM16.42 11.04L16.42 11.04Q15.24 11.04 14.23 10.92L14.23 10.92Q14.28 15.00 16.94 15.00L16.94 15.00Q18.29 15.00 19.92 13.51L19.92 13.51Q20.62 14.23 20.81 15.41L20.81 15.41Q18.84 16.73 16.63 16.73Q14.42 16.73 13.34 15.20Q12.26 13.68 12.26 10.73Q12.26 7.78 13.48 6.34Q14.69 4.90 16.92 4.90L16.92 4.90Q18.58 4.90 19.66 5.90Q20.74 6.91 20.75 8.38Q20.76 9.84 20.50 10.46L20.50 10.46Q18.70 11.04 16.42 11.04ZM16.75 6.24L16.75 6.24Q14.52 6.24 14.26 9.53L14.26 9.53Q15.34 9.65 16.63 9.65Q17.93 9.65 18.65 9.41L18.65 9.41Q18.74 8.81 18.74 8.52L18.74 8.52Q18.74 7.46 18.20 6.85Q17.66 6.24 16.75 6.24ZM24.24 10.80L24.24 10.80L24.24 7.51Q24.24 3.19 24.12 1.63L24.12 1.63L23.16 1.56Q23.09 1.25 23.09 0.83Q23.09 0.41 23.11 0.22L23.11 0.22Q25.30 0.10 26.23 0L26.23 0L26.33 0.12Q25.99 2.98 25.99 6.26L25.99 6.26L25.99 10.22Q25.99 13.18 26.21 14.98L26.21 14.98L27.10 15.05Q27.14 15.43 27.14 15.71Q27.14 15.98 27.07 16.39L27.07 16.39Q26.23 16.37 25.13 16.37Q24.02 16.37 23.21 16.39L23.21 16.39Q23.14 16.03 23.14 15.76Q23.14 15.48 23.18 15.05L23.18 15.05L24.02 14.98Q24.24 12.72 24.24 10.80ZM33.29 11.04L33.29 11.04Q32.11 11.04 31.10 10.92L31.10 10.92Q31.15 15.00 33.82 15.00L33.82 15.00Q35.16 15.00 36.79 13.51L36.79 13.51Q37.49 14.23 37.68 15.41L37.68 15.41Q35.71 16.73 33.50 16.73Q31.30 16.73 30.22 15.20Q29.14 13.68 29.14 10.73Q29.14 7.78 30.35 6.34Q31.56 4.90 33.79 4.90L33.79 4.90Q35.45 4.90 36.53 5.90Q37.61 6.91 37.62 8.38Q37.63 9.84 37.37 10.46L37.37 10.46Q35.57 11.04 33.29 11.04ZM33.62 6.24L33.62 6.24Q31.39 6.24 31.13 9.53L31.13 9.53Q32.21 9.65 33.50 9.65Q34.80 9.65 35.52 9.41L35.52 9.41Q35.62 8.81 35.62 8.52L35.62 8.52Q35.62 7.46 35.08 6.85Q34.54 6.24 33.62 6.24ZM49.51 5.57Q48.77 5.57 48.36 5.11Q47.95 4.66 47.95 3.92Q47.95 3.19 48.26 2.78L48.26 2.78Q47.50 2.06 46.15 2.06L46.15 2.06Q44.18 2.06 43.18 3.71Q42.17 5.35 42.17 8.54L42.17 8.54Q42.17 14.95 46.15 14.95L46.15 14.95Q47.11 14.95 48.11 14.48Q49.10 14.02 49.80 13.25L49.80 13.25Q50.54 13.85 50.76 15.14L50.76 15.14Q48.62 16.73 46.15 16.73L46.15 16.73Q43.01 16.73 41.60 14.78Q40.20 12.84 40.20 8.74L40.20 8.74Q40.20 0.65 46.15 0.65L46.15 0.65Q47.95 0.65 49.36 1.60Q50.76 2.54 50.76 4.06Q50.76 5.57 49.51 5.57L49.51 5.57ZM62.38 7.97L62.38 7.97L62.35 10.30Q62.35 12.84 62.64 14.98L62.64 14.98L63.48 15.05Q63.53 15.43 63.53 15.71Q63.53 15.98 63.46 16.39L63.46 16.39Q62.62 16.37 61.48 16.37Q60.34 16.37 59.52 16.39L59.52 16.39Q59.45 16.03 59.45 15.76Q59.45 15.48 59.50 15.05L59.50 15.05L60.34 14.98Q60.53 12.38 60.53 10.37Q60.53 8.35 60.18 7.39Q59.83 6.43 58.78 6.43L58.78 6.43Q57.43 6.43 55.90 7.97L55.90 7.97L55.90 10.22Q55.90 13.18 56.11 14.98L56.11 14.98L57 15.05Q57.05 15.43 57.05 15.71Q57.05 15.98 56.98 16.39L56.98 16.39Q56.14 16.37 55.03 16.37Q53.93 16.37 53.11 16.39L53.11 16.39Q53.04 16.03 53.04 15.76Q53.04 15.48 53.09 15.05L53.09 15.05L53.93 14.98Q54.14 12.72 54.14 10.80L54.14 10.80L54.14 7.51Q54.14 3.19 54.02 1.63L54.02 1.63L53.06 1.56Q52.99 1.25 52.99 0.83Q52.99 0.41 53.02 0.22L53.02 0.22Q55.20 0.10 56.14 0L56.14 0L56.23 0.12Q55.90 2.98 55.90 6.55L55.90 6.55Q56.62 5.83 57.62 5.36Q58.63 4.90 59.54 4.90L59.54 4.90Q62.38 4.90 62.38 7.97ZM73.85 8.09L73.85 8.09L73.75 11.54Q73.75 13.18 73.94 14.74L73.94 14.74L74.83 14.81Q74.88 15.19 74.88 15.52Q74.88 15.84 74.81 16.20L74.81 16.20Q74.11 16.22 72.10 16.44L72.10 16.44Q71.93 15.98 71.83 15.31L71.83 15.31Q69.96 16.73 68.60 16.73Q67.25 16.73 66.49 15.85Q65.74 14.98 65.74 13.36Q65.74 11.74 66.76 10.80Q67.78 9.86 69.32 9.86Q70.87 9.86 71.98 10.44L71.98 10.44Q72 10.18 72 9.58L72 9.58Q72 7.80 71.51 7.02Q71.02 6.24 70.01 6.24Q69 6.24 68.54 6.62L68.54 6.62Q68.74 7.01 68.74 7.58Q68.74 8.16 68.36 8.58Q67.99 9.00 67.32 9.00L67.32 9.00Q66.19 9.00 66.19 7.67Q66.19 6.34 67.20 5.62Q68.21 4.90 70.03 4.90Q71.86 4.90 72.85 5.75Q73.85 6.60 73.85 8.09ZM71.88 11.95L71.88 11.95Q70.90 11.11 69.77 11.11L69.77 11.11Q67.61 11.11 67.61 13.03L67.61 13.03Q67.61 15.00 69.31 15.00L69.31 15.00Q69.94 15.00 70.64 14.68Q71.35 14.35 71.76 13.87L71.76 13.87Q71.88 12.43 71.88 11.95ZM92.02 8.33L92.02 8.33L91.99 10.30Q91.99 12.82 92.28 14.98L92.28 14.98L93.14 15.05Q93.19 15.26 93.19 15.62Q93.19 15.98 93.12 16.39L93.12 16.39Q92.45 16.37 91.10 16.37Q89.76 16.37 89.18 16.39L89.18 16.39Q89.11 16.03 89.11 15.71Q89.11 15.38 89.16 15.05L89.16 15.05L89.98 14.98Q90.17 12.17 90.17 10.16Q90.17 8.16 89.81 7.30Q89.45 6.43 88.61 6.43L88.61 6.43Q87.41 6.43 86.04 8.02L86.04 8.02L86.02 10.30Q86.02 12.82 86.30 14.98L86.30 14.98L87.14 15.05Q87.19 15.43 87.19 15.71Q87.19 15.98 87.12 16.39L87.12 16.39Q86.45 16.37 85.10 16.37Q83.76 16.37 83.18 16.39L83.18 16.39Q83.11 16.03 83.11 15.71Q83.11 15.38 83.16 15.05L83.16 15.05L84 14.98Q84.19 12.17 84.19 10.16Q84.19 8.16 83.83 7.30Q83.47 6.43 82.63 6.43L82.63 6.43Q81.41 6.43 80.06 7.99L80.06 7.99Q80.04 8.62 80.04 10.91Q80.04 13.20 80.26 14.98L80.26 14.98L81.14 15.05Q81.19 15.58 81.19 15.78Q81.19 15.98 81.12 16.39L81.12 16.39Q80.45 16.37 79.15 16.37Q77.86 16.37 77.26 16.39L77.26 16.39Q77.18 16.03 77.18 15.71Q77.18 15.38 77.23 15.05L77.23 15.05L78.07 14.98Q78.29 12.58 78.29 10.57Q78.29 8.57 78.10 6.60L78.10 6.60L77.21 6.53Q77.14 6.12 77.14 5.72Q77.14 5.33 77.16 5.18L77.16 5.18Q78.38 5.16 80.14 4.97L80.14 4.97L80.26 5.09Q80.18 5.59 80.11 6.50L80.11 6.50Q80.81 5.78 81.72 5.34Q82.63 4.90 83.42 4.90L83.42 4.90Q85.39 4.90 85.90 6.74L85.90 6.74Q86.59 5.93 87.56 5.41Q88.54 4.90 89.40 4.90L89.40 4.90Q90.74 4.90 91.38 5.72Q92.02 6.55 92.02 8.33ZM102.50 9.86L102.50 9.86Q102.50 6.43 100.46 6.43L100.46 6.43Q99 6.43 97.68 7.99L97.68 7.99L97.68 14.45Q98.78 15.00 100.01 15.00L100.01 15.00Q102.50 15.00 102.50 9.86ZM97.68 6.53L97.68 6.53Q99.36 4.90 101.06 4.90Q102.77 4.90 103.66 6.29Q104.54 7.68 104.54 10.18L104.54 10.18Q104.54 13.56 103.38 15.14Q102.22 16.73 99.72 16.73L99.72 16.73Q98.16 16.73 95.57 16.10L95.57 16.10Q95.95 13.75 95.95 8.47Q95.95 3.19 95.83 1.63L95.83 1.63L94.87 1.56Q94.80 1.27 94.80 0.82Q94.80 0.36 94.82 0.22L94.82 0.22Q96.96 0.12 97.94 0L97.94 0L98.04 0.12Q97.70 3.00 97.68 6.53ZM115.06 8.09L115.06 8.09L114.96 11.54Q114.96 13.18 115.15 14.74L115.15 14.74L116.04 14.81Q116.09 15.19 116.09 15.52Q116.09 15.84 116.02 16.20L116.02 16.20Q115.32 16.22 113.30 16.44L113.30 16.44Q113.14 15.98 113.04 15.31L113.04 15.31Q111.17 16.73 109.81 16.73Q108.46 16.73 107.70 15.85Q106.94 14.98 106.94 13.36Q106.94 11.74 107.96 10.80Q108.98 9.86 110.53 9.86Q112.08 9.86 113.18 10.44L113.18 10.44Q113.21 10.18 113.21 9.58L113.21 9.58Q113.21 7.80 112.72 7.02Q112.22 6.24 111.22 6.24Q110.21 6.24 109.75 6.62L109.75 6.62Q109.94 7.01 109.94 7.58Q109.94 8.16 109.57 8.58Q109.20 9.00 108.53 9.00L108.53 9.00Q107.40 9.00 107.40 7.67Q107.40 6.34 108.41 5.62Q109.42 4.90 111.24 4.90Q113.06 4.90 114.06 5.75Q115.06 6.60 115.06 8.09ZM113.09 11.95L113.09 11.95Q112.10 11.11 110.98 11.11L110.98 11.11Q108.82 11.11 108.82 13.03L108.82 13.03Q108.82 15.00 110.52 15.00L110.52 15.00Q111.14 15.00 111.85 14.68Q112.56 14.35 112.97 13.87L112.97 13.87Q113.09 12.43 113.09 11.95Z" transform="translate(0, 51.995)"></path></svg>